<svg xmlns="http://www.w3.org/2000/svg" viewBox="0 0 1400 560" role="img" aria-labelledby="t d">
<title id="t">Fānus Blueprint — visual system</title>
<desc id="d">A dark technical blueprint showing the Fānus system as a layered visual interface.</desc>
<defs>
  <linearGradient id="bg" x1="0" y1="0" x2="1" y2="1"><stop stop-color="#05070b"/><stop offset=".55" stop-color="#0b1017"/><stop offset="1" stop-color="#11131a"/></linearGradient>
  <radialGradient id="halo"><stop stop-color="#20d39b" stop-opacity=".18"/><stop offset="1" stop-color="#20d39b" stop-opacity="0"/></radialGradient>
  <linearGradient id="line"><stop stop-color="#20d39b" stop-opacity=".8"/><stop offset="1" stop-color="#8b7cff" stop-opacity=".15"/></linearGradient>
  <filter id="glow"><feGaussianBlur stdDeviation="7" result="b"/><feMerge><feMergeNode in="b"/><feMergeNode in="SourceGraphic"/></feMerge></filter>
</defs>
<rect width="1400" height="560" rx="28" fill="url(#bg)"/>
<circle cx="1040" cy="250" r="260" fill="url(#halo)"/>
<g opacity=".11" stroke="#d8d5cc">
  <path d="M60 80H1340M60 160H1340M60 240H1340M60 320H1340M60 400H1340M60 480H1340"/>
  <path d="M120 40V520M280 40V520M440 40V520M600 40V520M760 40V520M920 40V520M1080 40V520M1240 40V520"/>
</g>
<g font-family="ui-monospace,SFMono-Regular,Menlo,monospace" fill="#d8d5cc">
  <text x="70" y="92" font-size="18" letter-spacing="5" fill="#20d39b">FĀNUS / BLUEPRINT</text>
  <text x="70" y="145" font-size="54" font-weight="700" letter-spacing="3">MAKE THE SYSTEM VISIBLE.</text>
  <text x="70" y="184" font-size="16" letter-spacing="2" opacity=".62">VISUAL ENGINEERING · OBSERVABILITY · INTERACTION</text>
</g>
<g stroke="url(#line)" fill="none" stroke-width="2" filter="url(#glow)">
  <path d="M820 280H1110"/>
  <path d="M965 280V205"/>
  <path d="M965 280V355"/>
  <path d="M1110 280H1270"/>
</g>
<g font-family="ui-monospace,SFMono-Regular,Menlo,monospace">
  <g transform="translate(690 225)">
    <rect width="270" height="110" rx="14" fill="#0d1219" stroke="#20d39b" stroke-opacity=".65"/>
    <text x="24" y="37" fill="#20d39b" font-size="13" letter-spacing="3">CANONICAL</text>
    <text x="24" y="72" fill="#f1eee6" font-size="24">LIVING SEAL</text>
    <text x="24" y="94" fill="#8c918d" font-size="11">SOURCE OF TRUTH</text>
  </g>
  <g transform="translate(1010 150)">
    <rect width="210" height="85" rx="12" fill="#0d1219" stroke="#8b7cff" stroke-opacity=".65"/>
    <text x="20" y="32" fill="#8b7cff" font-size="11" letter-spacing="2">PRESENCE</text>
    <text x="20" y="60" fill="#f1eee6" font-size="19">VERIFY</text>
  </g>
  <g transform="translate(1010 325)">
    <rect width="210" height="85" rx="12" fill="#0d1219" stroke="#d9a441" stroke-opacity=".7"/>
    <text x="20" y="32" fill="#d9a441" font-size="11" letter-spacing="2">BLUEPRINT</text>
    <text x="20" y="60" fill="#f1eee6" font-size="19">INSPECT</text>
  </g>
  <g transform="translate(1240 240)">
    <rect width="110" height="80" rx="12" fill="#0d1219" stroke="#d8d5cc" stroke-opacity=".25"/>
    <text x="18" y="31" fill="#d8d5cc" font-size="10" letter-spacing="2">LIVE</text>
    <text x="18" y="57" fill="#20d39b" font-size="14">FANUS 1</text>
  </g>
</g>
<text x="70" y="500" font-family="ui-monospace,SFMono-Regular,Menlo,monospace" font-size="12" letter-spacing="3" fill="#8c918d">ARCHITECTURE · STATE · API · LEDGER · MIGRATION · RITUAL · TERMINAL</text>
</svg>